<svg width="400" height="800" viewBox="0 0 400 800" xmlns="http://www.w3.org/2000/svg">
  <!-- iPhone Bezel -->
  <rect x="10" y="10" width="380" height="780" rx="50" fill="#2E3B2E" stroke="#1a1a1a" stroke-width="14"/>
  <rect x="130" y="20" width="140" height="35" rx="17.5" fill="#000000"/>
  
  <!-- Analytics Chart View -->
  <text x="200" y="100" font-family="serif" font-size="16" fill="#D9C794" letter-spacing="2" text-anchor="middle">INSIGHTS</text>
  
  <rect x="30" y="130" width="160" height="80" rx="15" fill="#263326"/>
  <text x="45" y="175" font-family="sans-serif" font-size="24" font-weight="bold" fill="#FFFFFF">4.2h</text>
  <text x="45" y="195" font-family="sans-serif" font-size="12" fill="#FFFFFF" opacity="0.6">Deep Work</text>

  <rect x="210" y="130" width="160" height="80" rx="15" fill="#263326"/>
  <text x="225" y="175" font-family="sans-serif" font-size="24" font-weight="bold" fill="#D9C794">90%</text>
  <text x="225" y="195" font-family="sans-serif" font-size="12" fill="#FFFFFF" opacity="0.6">Focus Score</text>

  <!-- Donut Chart Mockup -->
  <circle cx="200" cy="350" r="100" fill="none" stroke="#263326" stroke-width="30"/>
  <path d="M 200 250 A 100 100 0 0 1 300 350" stroke="#D9C794" stroke-width="30" fill="none"/>
  <path d="M 300 350 A 100 100 0 0 1 120 410" stroke="#A8B5A8" stroke-width="30" fill="none"/>

  <!-- Trend Graph Mockup -->
  <rect x="30" y="520" width="340" height="200" rx="20" fill="#263326"/>
  <text x="50" y="560" font-family="serif" font-size="14" fill="#D9C794" letter-spacing="1">WEEKLY TREND</text>
  
  <path d="M 50 680 L 100 650 L 150 670 L 200 610 L 250 630 L 300 580 L 350 600" stroke="#D9C794" stroke-width="4" fill="none" stroke-linejoin="round"/>
  
  <circle cx="200" cy="610" r="6" fill="#D9C794"/>
  <circle cx="300" cy="580" r="6" fill="#D9C794"/>
</svg>